<?xml version="1.0" encoding="utf-8"?>
<svg version="1.1" id="Layer_1" xmlns="http://www.w3.org/2000/svg" xmlns:xlink="http://www.w3.org/1999/xlink" x="0px" y="0px"
	 viewBox="0 0 512 512" style="enable-background:new 0 0 512 512;" xml:space="preserve">
<g>
	<g id="_x3C_Radial_Repeat_x3E__00000179614148152616256730000001710287404529099198_">
		<path fill="#FDC127" d="M400.66,63.22l48.48,36.16c25.51,19.02,20.86,58.52-8.37,71.1l-55.55,23.91l-55.55,23.91
			c-29.22,12.58-61.11-11.2-57.39-42.79l7.07-60.07l7.07-60.07c3.72-31.6,40.25-47.32,65.76-28.3L400.66,63.22z"/>
	</g>
	<g id="_x3C_Radial_Repeat_x3E__00000100376168472256430510000005706924642765531287_">
		<path fill="#7EC460" d="M118.41,58.59l49.37-34.94c25.97-18.38,62.1-1.75,65.03,29.93l5.57,60.22l5.57,60.22
			c2.93,31.68-29.53,54.66-58.43,41.35l-54.94-25.28l-54.94-25.28c-28.9-13.3-32.57-52.9-6.6-71.28L118.41,58.59z"/>
	</g>
	<g id="_x3C_Radial_Repeat_x3E__00000099632249100559961320000009524729364794654644_">
		<path fill="#4C8DCB" d="M26.78,325.59L8.8,267.84c-9.45-30.38,17.52-59.6,48.56-52.6l59,13.31l59,13.31
			c31.04,7,42.86,44.98,21.27,68.35l-41.03,44.44l-41.03,44.44C93,422.47,54.2,413.72,44.75,383.34L26.78,325.59z"/>
	</g>
	<g id="_x3C_Radial_Repeat_x3E__00000181771030071580984260000012839670939824789914_">
		<path fill="#BE276A" d="M252.4,495.24l-60.48-0.75c-31.81-0.4-51.27-35.08-35.02-62.44l30.89-52l30.89-52
			c16.25-27.35,56.02-26.86,71.58,0.89l29.59,52.75l29.59,52.75c15.56,27.75-4.75,61.94-36.56,61.55L252.4,495.24z"/>
	</g>
	<g id="_x3C_Radial_Repeat_x3E__00000131341495592477202360000011357338343953087378_">
		<path fill="#E16650" d="M483.47,333.09l-19.4,57.28c-10.21,30.13-49.21,37.92-70.2,14.01l-39.91-45.45l-39.91-45.45
			c-20.99-23.91-8.23-61.58,22.97-67.8l59.31-11.84l59.31-11.84c31.2-6.23,57.44,23.66,47.24,53.79L483.47,333.09z"/>
	</g>
</g>
</svg>
