<?xml version="1.0" encoding="utf-8"?>
<svg version="1.1" id="Layer_1" xmlns="http://www.w3.org/2000/svg" xmlns:xlink="http://www.w3.org/1999/xlink" x="0px" y="0px"
	 viewBox="0 0 1080 540" style="enable-background:new 0 0 1080 540;" xml:space="preserve">
<g>
	<g>
		<path fill="#FFFFFF" d="M225.03,487.97h-18.92c-26.38,0-48.45-8.9-66.22-26.69c-17.78-17.8-26.66-39.9-26.66-66.31V209.37
			c0-8.61,2.65-15.57,7.95-20.88c5.3-5.31,12.26-7.97,20.85-7.97c8.6,0,15.62,2.66,21.07,7.97c5.44,5.31,8.17,12.28,8.17,20.89
			v185.65c0,9.77,3.37,18.03,10.1,24.77c6.73,6.75,14.98,10.12,24.73,10.12h18.92c8.6,0,15.55,2.73,20.85,8.17
			c5.3,5.45,7.96,12.47,7.96,21.07s-2.65,15.55-7.96,20.86C240.58,485.32,233.63,487.97,225.03,487.97z"/>
		<path fill="#FFFFFF" d="M386.71,268.67c30.96,0,57.04,10.55,78.26,31.67c21.21,21.11,31.82,47.18,31.82,78.2
			s-10.61,57.16-31.82,78.41c-21.22,21.26-47.3,31.88-78.26,31.88s-56.98-10.62-78.04-31.88c-21.07-21.26-31.6-47.39-31.6-78.41
			s10.53-57.09,31.6-78.2C329.74,279.23,355.75,268.67,386.71,268.67z M386.71,326.72c-14.34,0-26.52,5.04-36.55,15.12
			c-10.04,10.08-15.05,22.31-15.05,36.7s5.01,26.7,15.05,36.92c10.03,10.22,22.21,15.33,36.55,15.33c14.33,0,26.59-5.11,36.76-15.33
			c10.17-10.22,15.27-22.53,15.27-36.92s-5.09-26.62-15.27-36.7C413.3,331.76,401.04,326.72,386.71,326.72z"/>
		<path fill="#FFFFFF" d="M578.49,361.22v97.87c0,8.63-2.73,15.59-8.17,20.91c-5.45,5.31-12.47,7.98-21.07,7.98
			c-8.6,0-15.55-2.66-20.86-7.97c-5.31-5.31-7.96-12.28-7.96-20.9V361.3c0-26.13,8.96-48.11,26.88-65.92
			c17.91-17.8,39.92-26.71,66-26.71c8.31,0,15.19,2.73,20.64,8.17c5.44,5.45,8.17,12.33,8.17,20.64c0,17.78-9.89,27.52-29.67,29.24
			c-9.75,0.87-17.85,4.39-24.29,10.57C581.71,343.47,578.49,351.45,578.49,361.22z"/>
		<path fill="#FFFFFF" d="M723.39,297.53c0-19.24-9.75-28.86-29.24-28.86c-8.6,0-15.55,2.66-20.86,7.97
			c-5.31,5.32-7.96,12.28-7.96,20.89v161.57c0,8.61,2.65,15.58,7.96,20.9c5.3,5.31,12.25,7.97,20.86,7.97
			c8.6,0,15.62-2.66,21.07-7.97c5.44-5.31,8.17-12.28,8.17-20.9V297.53z"/>
		<path fill="#FFFFFF" d="M856.69,268.67c30.96,0,57.04,10.55,78.26,31.67c21.21,21.11,31.82,47.18,31.82,78.2
			s-10.61,57.16-31.82,78.41c-21.22,21.26-47.3,31.88-78.26,31.88s-56.98-10.62-78.04-31.88c-21.07-21.26-31.61-47.39-31.61-78.41
			s10.54-57.09,31.61-78.2C799.71,279.23,825.73,268.67,856.69,268.67z M856.69,326.72c-14.34,0-26.52,5.04-36.55,15.12
			c-10.04,10.08-15.05,22.31-15.05,36.7s5.01,26.7,15.05,36.92c10.03,10.22,22.21,15.33,36.55,15.33c14.33,0,26.59-5.11,36.76-15.33
			c10.17-10.22,15.27-22.53,15.27-36.92s-5.09-26.62-15.27-36.7C883.27,331.76,871.02,326.72,856.69,326.72z"/>
	</g>
</g>
</svg>
