<?xml version="1.0" encoding="utf-8"?>
<!-- Generator: Adobe Illustrator 26.0.3, SVG Export Plug-In . SVG Version: 6.00 Build 0)  -->
<svg version="1.1" id="Layer_1" xmlns="http://www.w3.org/2000/svg" xmlns:xlink="http://www.w3.org/1999/xlink" x="0px" y="0px"
	 viewBox="0 0 512 512" style="enable-background:new 0 0 512 512;" xml:space="preserve">
<style type="text/css">
	.st0{fill:#FDC127;}
	.st1{fill:#7EC460;}
	.st2{fill:#4C8DCB;}
	.st3{fill:#BE276A;}
	.st4{fill:#E16650;}
	.st5{fill:#FFFEFF;}
	.st6{fill:#FFFFFF;}
	.st7{font-family:'Poppins-Bold';}
	.st8{font-size:12px;}
	.st9{fill-rule:evenodd;clip-rule:evenodd;fill:#FFFFFF;}
</style>
<g>
	<g id="_x3C_Radial_Repeat_x3E__00000179614148152616256730000001710287404529099198_">
		<path class="st0" d="M400.66,63.22l48.48,36.16c25.51,19.02,20.86,58.52-8.37,71.1l-55.55,23.91l-55.55,23.91
			c-29.22,12.58-61.11-11.2-57.39-42.79l7.07-60.07l7.07-60.07c3.72-31.6,40.25-47.32,65.76-28.3L400.66,63.22z"/>
	</g>
	<g id="_x3C_Radial_Repeat_x3E__00000100376168472256430510000005706924642765531287_">
		<path class="st1" d="M118.41,58.59l49.37-34.94c25.97-18.38,62.1-1.75,65.03,29.93l5.57,60.22l5.57,60.22
			c2.93,31.68-29.53,54.66-58.43,41.35l-54.94-25.28l-54.94-25.28c-28.9-13.3-32.57-52.9-6.6-71.28L118.41,58.59z"/>
	</g>
	<g id="_x3C_Radial_Repeat_x3E__00000099632249100559961320000009524729364794654644_">
		<path class="st2" d="M26.78,325.59L8.8,267.84c-9.45-30.38,17.52-59.6,48.56-52.6l59,13.31l59,13.31
			c31.04,7,42.86,44.98,21.27,68.35l-41.03,44.44l-41.03,44.44C93,422.47,54.2,413.72,44.75,383.34L26.78,325.59z"/>
	</g>
	<g id="_x3C_Radial_Repeat_x3E__00000181771030071580984260000012839670939824789914_">
		<path class="st3" d="M252.4,495.24l-60.48-0.75c-31.81-0.4-51.27-35.08-35.02-62.44l30.89-52l30.89-52
			c16.25-27.35,56.02-26.86,71.58,0.89l29.59,52.75l29.59,52.75c15.56,27.75-4.75,61.94-36.56,61.55L252.4,495.24z"/>
	</g>
	<g id="_x3C_Radial_Repeat_x3E__00000131341495592477202360000011357338343953087378_">
		<path class="st4" d="M483.47,333.09l-19.4,57.28c-10.21,30.13-49.21,37.92-70.2,14.01l-39.91-45.45l-39.91-45.45
			c-20.99-23.91-8.23-61.58,22.97-67.8l59.31-11.84l59.31-11.84c31.2-6.23,57.44,23.66,47.24,53.79L483.47,333.09z"/>
	</g>
</g>
<g>
	<g id="surface1">
		<path class="st5" d="M373.51,76.45h-41.4c-1.99,0-3.6,1.61-3.6,3.6v21.6h1.8v-21.6c0-0.99,0.81-1.8,1.8-1.8h41.4
			c0.99,0,1.8,0.81,1.8,1.8v36c0,0.99-0.81,1.8-1.8,1.8h-18.9v1.8h18.9c1.99,0,3.6-1.61,3.6-3.6v-36
			C377.11,78.06,375.5,76.45,373.51,76.45z"/>
		<path class="st5" d="M332.11,80.05h1.8v1.8h-1.8V80.05z"/>
		<path class="st5" d="M335.71,80.05h1.8v1.8h-1.8V80.05z"/>
		<path class="st5" d="M339.31,80.05h1.8v1.8h-1.8V80.05z"/>
		<path class="st5" d="M332.11,83.65h41.4v1.8h-41.4V83.65z"/>
		<path class="st5" d="M332.11,98.05c0,0.5,0.4,0.9,0.9,0.9h10.8c0.5,0,0.9-0.4,0.9-0.9v-7.2c0-0.5-0.4-0.9-0.9-0.9h-4.13
			l-1.54-1.54c-0.17-0.17-0.4-0.26-0.64-0.26h-4.5c-0.5,0-0.9,0.4-0.9,0.9V98.05z M333.91,89.95h3.23l1.54,1.54
			c0.17,0.17,0.4,0.26,0.64,0.26h3.6v5.4h-9V89.95z"/>
		<path class="st5" d="M359.11,90.85c0-0.5-0.4-0.9-0.9-0.9h-4.13l-1.54-1.54c-0.17-0.17-0.4-0.26-0.64-0.26h-4.5
			c-0.5,0-0.9,0.4-0.9,0.9v9c0,0.5,0.4,0.9,0.9,0.9h10.8c0.5,0,0.9-0.4,0.9-0.9V90.85z M357.31,97.15h-9v-7.2h3.23l1.54,1.54
			c0.17,0.17,0.4,0.26,0.64,0.26h3.6V97.15z"/>
		<path class="st5" d="M373.51,90.85c0-0.5-0.4-0.9-0.9-0.9h-4.13l-1.54-1.54c-0.17-0.17-0.4-0.26-0.64-0.26h-4.5
			c-0.5,0-0.9,0.4-0.9,0.9v9c0,0.5,0.4,0.9,0.9,0.9h10.8c0.5,0,0.9-0.4,0.9-0.9V90.85z M371.71,97.15h-9v-7.2h3.23l1.54,1.54
			c0.17,0.17,0.4,0.26,0.64,0.26h3.6V97.15z"/>
		<path class="st5" d="M354.61,111.55v1.8h3.6c0.5,0,0.9-0.4,0.9-0.9v-7.2c0-0.5-0.4-0.9-0.9-0.9h-4.13l-1.54-1.54
			c-0.17-0.17-0.4-0.26-0.64-0.26h-2.7v1.8h2.33l1.54,1.54c0.17,0.17,0.4,0.26,0.64,0.26h3.6v5.4H354.61z"/>
		<path class="st5" d="M372.61,104.35h-4.13l-1.54-1.54c-0.17-0.17-0.4-0.26-0.64-0.26h-4.5c-0.5,0-0.9,0.4-0.9,0.9v9
			c0,0.5,0.4,0.9,0.9,0.9h10.8c0.5,0,0.9-0.4,0.9-0.9v-7.2C373.51,104.76,373.11,104.35,372.61,104.35z M371.71,111.55h-9v-7.2h3.23
			l1.54,1.54c0.17,0.17,0.4,0.26,0.64,0.26h3.6V111.55z"/>
		<path class="st5" d="M327.29,112.45h-2.38c-0.5,0-0.9,0.4-0.9,0.9v5.4c0,0.5,0.4,0.9,0.9,0.9h2.38c0.19,0.59,0.43,1.17,0.71,1.72
			l-1.68,1.68c-0.35,0.35-0.35,0.92,0,1.27l3.82,3.82c0.35,0.35,0.92,0.35,1.27,0l1.68-1.68c0.55,0.28,1.13,0.52,1.72,0.71v2.38
			c0,0.5,0.4,0.9,0.9,0.9h5.4c0.5,0,0.9-0.4,0.9-0.9v-2.38c0.59-0.19,1.17-0.43,1.72-0.71l1.68,1.68c0.35,0.35,0.92,0.35,1.27,0
			l3.82-3.82c0.35-0.35,0.35-0.92,0-1.27l-1.68-1.68c0.28-0.55,0.52-1.13,0.71-1.72h2.38c0.5,0,0.9-0.4,0.9-0.9v-5.4
			c0-0.5-0.4-0.9-0.9-0.9h-2.38c-0.19-0.59-0.43-1.17-0.71-1.72l1.68-1.68c0.35-0.35,0.35-0.92,0-1.27l-3.82-3.82
			c-0.35-0.35-0.92-0.35-1.27,0l-1.68,1.68c-0.55-0.28-1.13-0.52-1.72-0.71v-2.38c0-0.5-0.4-0.9-0.9-0.9h-5.4
			c-0.5,0-0.9,0.4-0.9,0.9v2.38c-0.59,0.19-1.17,0.43-1.72,0.71l-1.68-1.68c-0.35-0.35-0.92-0.35-1.27,0l-3.82,3.82
			c-0.35,0.35-0.35,0.92,0,1.27l1.68,1.68c-0.07,0.15-0.15,0.29-0.22,0.44C327.59,111.59,327.43,112.02,327.29,112.45z
			 M328.84,113.58c0.23-0.89,0.58-1.75,1.05-2.55c0.21-0.35,0.15-0.8-0.14-1.09l-1.52-1.52l2.55-2.55l1.52,1.52
			c0.29,0.29,0.74,0.35,1.09,0.14c0.79-0.47,1.65-0.82,2.55-1.05c0.4-0.1,0.68-0.46,0.68-0.87v-2.15h3.6v2.15
			c0,0.41,0.28,0.77,0.68,0.87c0.89,0.23,1.75,0.58,2.55,1.05c0.35,0.21,0.8,0.15,1.09-0.14l1.52-1.52l2.55,2.55l-1.52,1.52
			c-0.29,0.29-0.35,0.74-0.14,1.09c0.47,0.79,0.82,1.65,1.05,2.55c0.1,0.4,0.46,0.68,0.87,0.68h2.15v3.6h-2.15
			c-0.41,0-0.77,0.28-0.87,0.68c-0.23,0.89-0.58,1.75-1.05,2.55c-0.21,0.35-0.15,0.8,0.14,1.09l1.52,1.52l-2.55,2.55l-1.52-1.52
			c-0.29-0.29-0.74-0.35-1.09-0.14c-0.79,0.47-1.65,0.82-2.55,1.05c-0.4,0.1-0.68,0.46-0.68,0.87v2.15h-3.6v-2.15
			c0-0.41-0.28-0.77-0.68-0.87c-0.89-0.23-1.75-0.58-2.55-1.05c-0.35-0.21-0.8-0.15-1.09,0.14l-1.52,1.52l-2.55-2.55l1.52-1.52
			c0.29-0.29,0.35-0.74,0.14-1.09c-0.47-0.79-0.82-1.65-1.05-2.55c-0.1-0.4-0.46-0.68-0.87-0.68h-2.15v-3.6h2.15
			C328.37,114.25,328.73,113.98,328.84,113.58z"/>
		<path class="st5" d="M338.41,122.35c3.48,0,6.3-2.82,6.3-6.3c0-3.48-2.82-6.3-6.3-6.3s-6.3,2.82-6.3,6.3
			C332.11,119.53,334.93,122.35,338.41,122.35z M338.41,111.55c2.49,0,4.5,2.01,4.5,4.5c0,2.49-2.01,4.5-4.5,4.5s-4.5-2.01-4.5-4.5
			C333.91,113.57,335.93,111.56,338.41,111.55z"/>
	</g>
	<text transform="matrix(1 0 0 1 315.8689 150.8046)"><tspan x="0" y="0" class="st6 st7 st8">Document</tspan><tspan x="-10.07" y="14.4" class="st6 st7 st8">Management </tspan></text>
</g>
<g>
	<text transform="matrix(1 0 0 1 196.2167 445.7305)" class="st6 st7 st8">Tyre Management</text>
	<g id="Out_line">
		<path class="st6" d="M275.96,406.9h-0.9c0.59-0.78,0.9-1.73,0.9-2.7v-9c0-0.97-0.32-1.92-0.9-2.7h0c2.48,0,4.5-2.02,4.5-4.5v-9
			c0-2.48-2.02-4.5-4.5-4.5h-27.9c-2.48,0-4.5,2.02-4.5,4.5v6.3h1.8v-2.7h33.3v1.8h-29.7v1.8h29.7v1.8c0,1.26-0.88,2.36-2.11,2.63
			l1.12-2.23l-1.61-0.81l-1.55,3.1h-1.59l1.15-2.3l-1.61-0.81l-1.55,3.1h-1.59l1.15-2.3l-1.61-0.81l-1.55,3.1h-1.59l1.15-2.3
			l-1.61-0.81l-1.55,3.1h-2.14v1.8h2.14l1.55,3.1l1.61-0.81l-1.15-2.3h1.59l1.55,3.1l1.61-0.81l-1.15-2.3H270l1.55,3.1l1.61-0.81
			l-1.12-2.23c1.23,0.28,2.11,1.37,2.11,2.63v1.8h-9.9v1.8h9.9v1.8h-8.1v1.8h8.1v1.8c0,1.26-0.88,2.36-2.11,2.63l1.12-2.23
			l-1.61-0.81l-1.55,3.1h-1.59l1.15-2.3l-1.61-0.81l-1.55,3.1h-0.34v1.8h1.24l1.55,3.1l1.61-0.81l-1.15-2.3h1.59l1.55,3.1l1.61-0.81
			l-1.15-2.3h1.59l1.55,3.1l1.61-0.81l-1.12-2.23c1.23,0.28,2.11,1.37,2.11,2.63v1.8h-14.4v1.8h14.4v1.8h-16.2v1.8h16.2v1.8
			c0,1.26-0.88,2.36-2.11,2.63l1.12-2.23l-1.61-0.81l-1.55,3.1h-1.59l1.15-2.3l-1.61-0.81l-1.55,3.1h-1.59l1.15-2.3l-1.61-0.81
			l-1.55,3.1h-1.59l1.15-2.3l-1.61-0.81l-1.55,3.1h-1.59l1.15-2.3l-1.61-0.81l-1.55,3.1h-3.94v1.8h19.8c2.48,0,4.5-2.02,4.5-4.5v-9
			C280.45,408.92,278.44,406.9,275.96,406.9z M244.46,380.8V379c0-0.7,0.27-1.37,0.76-1.87l1.14,2.27l1.61-0.81l-1.14-2.28
			c0.11-0.01,0.22-0.02,0.33-0.02h1.24l1.55,3.1l1.61-0.81l-1.15-2.3H252l1.55,3.1l1.61-0.81l-1.15-2.3h1.59l1.55,3.1l1.61-0.81
			l-1.15-2.3h1.59l1.55,3.1l1.61-0.81l-1.15-2.3h1.59l1.55,3.1l1.61-0.81l-1.15-2.3h1.59l1.55,3.1l1.61-0.81l-1.15-2.3H270l1.55,3.1
			l1.61-0.81l-1.15-2.3h1.59l1.55,3.1l1.61-0.81l-1.12-2.23c1.23,0.28,2.11,1.37,2.11,2.63v1.8H244.46z"/>
		<path class="st6" d="M264.26,406c0-10.42-8.48-18.9-18.9-18.9s-18.9,8.48-18.9,18.9c0,10.42,8.48,18.9,18.9,18.9
			S264.26,416.42,264.26,406z M256.81,416.18l-1.27,1.27l1.25,1.25c-0.66,0.6-1.37,1.14-2.12,1.63l-0.89-1.53l-1.56,0.9l0.89,1.54
			c-0.79,0.41-1.62,0.75-2.47,1.03l-0.46-1.72l-1.74,0.47l0.46,1.72c-0.87,0.19-1.76,0.3-2.65,0.35v-1.78h-1.8v1.78
			c-0.89-0.05-1.78-0.16-2.65-0.35l0.46-1.72l-1.74-0.47l-0.46,1.72c-0.85-0.28-1.67-0.62-2.47-1.03l0.89-1.54l-1.56-0.9l-0.89,1.53
			c-0.75-0.49-1.46-1.03-2.12-1.63l1.25-1.25l-1.27-1.27l-1.25,1.25c-0.6-0.66-1.14-1.37-1.63-2.12l1.53-0.89l-0.9-1.56l-1.54,0.89
			c-0.41-0.79-0.75-1.62-1.02-2.47l1.72-0.46l-0.47-1.74l-1.72,0.46c-0.19-0.87-0.3-1.76-0.35-2.65h1.78v-1.8h-1.78
			c0.05-0.89,0.16-1.78,0.35-2.65l1.72,0.46l0.47-1.74l-1.72-0.46c0.28-0.85,0.62-1.67,1.03-2.47l1.54,0.89l0.9-1.56l-1.53-0.89
			c0.49-0.75,1.03-1.46,1.63-2.12l1.25,1.25l1.27-1.27l-1.25-1.25c0.66-0.6,1.37-1.14,2.12-1.63l0.89,1.53l1.56-0.9l-0.89-1.54
			c0.79-0.41,1.62-0.75,2.47-1.02l0.46,1.72l1.74-0.47l-0.46-1.72c0.87-0.19,1.76-0.3,2.65-0.35v1.78h1.8v-1.78
			c0.89,0.05,1.78,0.16,2.65,0.35l-0.46,1.72l1.74,0.47l0.46-1.72c0.85,0.28,1.67,0.62,2.47,1.03l-0.89,1.54l1.56,0.9l0.89-1.53
			c0.75,0.49,1.46,1.03,2.12,1.63l-1.25,1.25l1.27,1.27l1.25-1.25c0.6,0.66,1.14,1.37,1.63,2.12l-1.53,0.89l0.9,1.56l1.54-0.89
			c0.41,0.79,0.75,1.62,1.03,2.47l-1.72,0.46l0.47,1.74l1.72-0.46c0.19,0.87,0.3,1.76,0.35,2.65h-1.78v1.8h1.78
			c-0.05,0.89-0.16,1.78-0.35,2.65l-1.72-0.46l-0.47,1.74l1.72,0.46c-0.28,0.85-0.62,1.67-1.02,2.47l-1.54-0.89l-0.9,1.56l1.53,0.89
			c-0.49,0.75-1.03,1.46-1.63,2.12L256.81,416.18z"/>
		<path class="st6" d="M255.26,406c0-5.47-4.43-9.9-9.9-9.9s-9.9,4.43-9.9,9.9s4.43,9.9,9.9,9.9
			C250.82,415.9,255.25,411.47,255.26,406z M249.64,407.39c1.18-0.63,2.48-0.99,3.81-1.08c-0.06,1.5-0.53,2.95-1.36,4.19
			C251.06,409.65,250.23,408.59,249.64,407.39z M251.72,400.99c-1.13,0.71-2.39,1.18-3.71,1.36c-0.23-1.31-0.18-2.66,0.15-3.96
			C249.56,398.92,250.79,399.82,251.72,400.99z M246.41,397.97c-0.46,1.83-0.46,3.75,0.02,5.59c0.1,0.4,0.46,0.67,0.87,0.67
			c0.02,0,0.04,0,0.05,0c1.89-0.11,3.72-0.7,5.32-1.71c0.3,0.64,0.52,1.31,0.65,2c-1.89,0.12-3.71,0.72-5.31,1.74
			c-0.36,0.23-0.51,0.69-0.35,1.09c0.69,1.76,1.81,3.32,3.27,4.52c-0.51,0.48-1.08,0.9-1.7,1.24c-0.7-1.76-1.84-3.31-3.3-4.51
			c-0.33-0.27-0.81-0.27-1.14,0c-1.46,1.2-2.6,2.75-3.3,4.51c-0.62-0.34-1.19-0.75-1.7-1.24c1.45-1.21,2.57-2.77,3.27-4.53
			c0.16-0.4,0.01-0.86-0.35-1.09c-1.59-1.02-3.42-1.62-5.31-1.74c0.13-0.69,0.35-1.36,0.65-2c1.6,1.01,3.43,1.6,5.32,1.71
			c0.02,0,0.04,0,0.05,0c0.41,0,0.77-0.28,0.87-0.67c0.48-1.83,0.48-3.75,0.02-5.59C245,397.88,245.71,397.88,246.41,397.97
			L246.41,397.97z M238.63,410.5c-0.83-1.24-1.31-2.69-1.36-4.19c1.33,0.08,2.63,0.45,3.81,1.08
			C240.48,408.59,239.65,409.65,238.63,410.5z M242.56,398.4c0.33,1.29,0.38,2.64,0.15,3.96c-1.32-0.19-2.58-0.65-3.71-1.36
			C239.92,399.82,241.15,398.92,242.56,398.4z M243.15,413.8c0.49-1.24,1.24-2.36,2.2-3.29c0.96,0.93,1.71,2.05,2.2,3.29
			C246.12,414.2,244.59,414.2,243.15,413.8L243.15,413.8z"/>
		<circle class="st6" cx="245.36" cy="406" r="0.9"/>
		<path class="st6" d="M234.83,411.11l-1.62,0.79c2.26,4.65,6.98,7.6,12.15,7.6v-1.8C240.87,417.7,236.79,415.14,234.83,411.11z"/>
		<path class="st6" d="M255.88,400.89l1.62-0.79c-2.26-4.65-6.98-7.6-12.15-7.6v1.8C249.84,394.3,253.93,396.86,255.88,400.89z"/>
		<path class="st6" d="M235.49,399.71c1.16-1.83,2.81-3.29,4.76-4.24l-0.79-1.62c-4.65,2.26-7.6,6.98-7.6,12.15h1.8
			C233.65,403.77,234.29,401.59,235.49,399.71z"/>
		<path class="st6" d="M257.06,406c0,4.48-2.56,8.57-6.59,10.53l0.79,1.62c4.65-2.26,7.6-6.98,7.6-12.15H257.06z"/>
	</g>
</g>
<g>
	<text transform="matrix(1 0 0 1 52.5047 335.4344)"><tspan x="0" y="0" class="st6 st7 st8">Maintenance</tspan><tspan x="0.77" y="14.4" class="st6 st7 st8">Management</tspan></text>
	<g>
		<path class="st9" d="M111.1,288.94v19.05c0,0.21-0.08,0.41-0.23,0.55l-6.06,6.06c-0.15,0.15-0.35,0.23-0.55,0.23H72.91
			c-0.43,0-0.78-0.35-0.78-0.78v-48.49c0-0.43,0.35-0.78,0.78-0.78h29.41c0.79-1.03,1.85-1.84,3.06-2.34c0.12-0.41,0.37-0.74,0.72-1
			c0.57-0.43,1.45-0.61,2.13-0.61c0.68,0,1.56,0.19,2.13,0.61c0.34,0.26,0.6,0.59,0.72,1c2.6,1.07,4.46,3.56,4.61,6.51h0.1
			c0.48,0,0.87,0.39,0.87,0.87s-0.39,0.87-0.87,0.87h-0.42c0,0.02,0,0.03,0,0.05c0,2.49-1.29,4.69-3.23,5.97
			c4.98,1.53,8.71,5.92,9.29,11.25c0.03,0.25-0.05,0.49-0.22,0.68c-0.17,0.18-0.4,0.29-0.65,0.29H111.1z M101.39,266.34h-27.7v46.93
			h29.79v-5.28c0-0.43,0.35-0.78,0.78-0.78h5.28v-18.27H95.91c-0.25,0-0.49-0.11-0.65-0.29c-0.17-0.18-0.25-0.43-0.22-0.68
			c0.57-5.33,4.3-9.72,9.28-11.25c-1.95-1.28-3.24-3.48-3.24-5.97c0-0.02,0-0.03,0-0.05h-0.42c-0.48,0-0.87-0.39-0.87-0.87
			s0.39-0.87,0.87-0.87h0.1C100.82,268.03,101.03,267.15,101.39,266.34z M105.04,312.16l3.4-3.4h-3.4V312.16z M113.93,268.96
			c-0.13-2-1.29-3.71-2.95-4.62l-0.31,2.36c-0.06,0.48-0.5,0.82-0.98,0.75c-0.48-0.06-0.82-0.5-0.75-0.98l0.45-3.41
			c0-0.02,0-0.04,0-0.07c0.01-0.11-0.09-0.16-0.18-0.21c-0.29-0.15-0.67-0.2-0.97-0.2c-0.3,0-0.68,0.05-0.97,0.2
			c-0.09,0.05-0.19,0.09-0.19,0.19c0,0.01,0,0.02,0,0.03l0.45,3.47c0.06,0.48-0.28,0.92-0.75,0.98c-0.48,0.06-0.92-0.28-0.98-0.75
			l-0.31-2.36c-1.66,0.91-2.82,2.62-2.95,4.62H113.93z M108.22,276.13c2.97,0,5.39-2.42,5.39-5.39c0-0.02,0-0.03,0-0.05h-10.78
			c0,0.02,0,0.03,0,0.05C102.84,273.71,105.26,276.13,108.22,276.13L108.22,276.13z M108.22,277.89c-2.02,0-3.92,0.52-5.58,1.44
			v2.33h11.15v-2.34C112.15,278.41,110.25,277.89,108.22,277.89L108.22,277.89z M100.9,280.52c-0.26,0.21-0.5,0.43-0.74,0.67v6
			h16.13v-6c-0.24-0.23-0.48-0.45-0.74-0.66v2.02c0,0.48-0.39,0.88-0.88,0.88h-12.9c-0.48,0-0.88-0.39-0.88-0.88V280.52z
			 M98.41,283.38c-0.71,1.15-1.21,2.43-1.48,3.8h1.48V283.38z M118.04,287.18h1.49c-0.27-1.37-0.78-2.66-1.49-3.81V287.18z
			 M92.66,307.17c-0.43,0-0.78-0.35-0.78-0.78c0-0.43,0.35-0.78,0.78-0.78h6.75c0.43,0,0.78,0.35,0.78,0.78
			c0,0.43-0.35,0.78-0.78,0.78H92.66z M80.47,288.58h6.33c0.88,0,1.61,0.72,1.61,1.61v6.33c0,0.88-0.72,1.61-1.61,1.61h-6.33
			c-0.88,0-1.61-0.72-1.61-1.61v-6.33C78.86,289.31,79.58,288.58,80.47,288.58z M80.47,290.15c-0.02,0-0.04,0.02-0.04,0.04v6.33
			c0,0.02,0.02,0.04,0.04,0.04h6.33c0.02,0,0.04-0.02,0.04-0.04v-6.33c0-0.02-0.02-0.04-0.04-0.04H80.47z M81.39,293.74
			c-0.3-0.31-0.3-0.8,0-1.11c0.31-0.31,0.8-0.31,1.11,0l0.77,0.77l1.43-1.77c0.27-0.34,0.76-0.39,1.1-0.12
			c0.34,0.27,0.39,0.76,0.12,1.1l-1.98,2.45c-0.14,0.17-0.35,0.28-0.57,0.29s-0.44-0.07-0.59-0.23L81.39,293.74z M80.47,299.97h6.33
			c0.88,0,1.61,0.73,1.61,1.61v6.33c0,0.88-0.72,1.61-1.61,1.61h-6.33c-0.88,0-1.61-0.72-1.61-1.61v-6.33
			C78.86,300.7,79.58,299.97,80.47,299.97z M80.47,301.54c-0.03,0-0.04,0.02-0.04,0.05v6.33c0,0.02,0.02,0.04,0.04,0.04h6.33
			c0.02,0,0.04-0.02,0.04-0.04v-6.33c0-0.03-0.02-0.05-0.04-0.05H80.47z M81.39,305.14c-0.31-0.3-0.31-0.8,0-1.11
			c0.3-0.31,0.8-0.31,1.11,0l0.77,0.77l1.43-1.77c0.27-0.34,0.76-0.39,1.1-0.12c0.34,0.27,0.39,0.76,0.12,1.1l-1.98,2.45
			c-0.14,0.17-0.34,0.28-0.57,0.29c-0.22,0.01-0.44-0.07-0.59-0.23L81.39,305.14z M92.66,292.5c-0.43,0-0.78-0.35-0.78-0.78
			c0-0.43,0.35-0.78,0.78-0.78h10.36c0.43,0,0.78,0.35,0.78,0.78c0,0.43-0.35,0.78-0.78,0.78H92.66z M92.66,295.77
			c-0.43,0-0.78-0.35-0.78-0.78s0.35-0.78,0.78-0.78h6.75c0.43,0,0.78,0.35,0.78,0.78s-0.35,0.78-0.78,0.78H92.66z M92.66,303.89
			c-0.43,0-0.78-0.35-0.78-0.78s0.35-0.78,0.78-0.78h10.36c0.43,0,0.78,0.35,0.78,0.78s-0.35,0.78-0.78,0.78H92.66z M88.01,269.67
			c0.51,0.15,1,0.36,1.47,0.61l0.94-0.42c0.33-0.15,0.72-0.08,0.97,0.18l1.59,1.59c0.25,0.25,0.33,0.64,0.18,0.97l-0.42,0.94
			c0.25,0.47,0.46,0.96,0.61,1.47l0.96,0.37c0.34,0.13,0.56,0.45,0.56,0.81v2.25c0,0.36-0.22,0.68-0.56,0.81l-0.96,0.37
			c-0.15,0.51-0.36,1-0.61,1.47l0.42,0.95c0.15,0.33,0.07,0.72-0.18,0.97l-1.59,1.59c-0.25,0.25-0.64,0.33-0.97,0.18
			c0,0-0.94-0.42-0.94-0.42c-0.47,0.25-0.96,0.46-1.47,0.61l-0.37,0.96c-0.13,0.34-0.45,0.56-0.81,0.56h-2.25
			c-0.36,0-0.68-0.22-0.81-0.56c0,0-0.37-0.96-0.37-0.96c-0.51-0.15-1-0.36-1.47-0.61l-0.95,0.42c-0.33,0.15-0.72,0.07-0.97-0.18
			l-1.59-1.59c-0.26-0.26-0.33-0.64-0.18-0.97l0.42-0.94c-0.25-0.47-0.46-0.96-0.61-1.47l-0.96-0.37c-0.34-0.13-0.56-0.45-0.56-0.81
			v-2.25c0-0.36,0.22-0.68,0.56-0.81c0,0,0.96-0.37,0.96-0.37c0.15-0.51,0.36-1,0.61-1.47l-0.42-0.94
			c-0.15-0.33-0.08-0.72,0.18-0.97l1.59-1.59c0.26-0.26,0.64-0.33,0.97-0.18c0,0,0.94,0.42,0.94,0.42c0.47-0.25,0.96-0.46,1.47-0.61
			l0.37-0.97c0.13-0.34,0.45-0.56,0.81-0.56h2.25c0.36,0,0.68,0.22,0.81,0.56L88.01,269.67z M86.54,270.71l-0.31-0.82h-1.05
			l-0.32,0.82c-0.1,0.27-0.33,0.47-0.61,0.53c-0.64,0.15-1.26,0.41-1.82,0.75c-0.25,0.15-0.55,0.17-0.81,0.05l-0.8-0.36l-0.74,0.74
			l0.36,0.8c0.12,0.26,0.1,0.57-0.05,0.81c-0.35,0.56-0.6,1.18-0.76,1.82c-0.07,0.28-0.27,0.51-0.53,0.61l-0.82,0.31v1.05l0.82,0.31
			c0.27,0.1,0.47,0.33,0.53,0.61c0.15,0.64,0.41,1.26,0.76,1.82c0.15,0.25,0.17,0.55,0.06,0.81l-0.36,0.8l0.74,0.74l0.8-0.36
			c0.26-0.12,0.56-0.1,0.81,0.05c0.56,0.35,1.18,0.6,1.82,0.75c0.28,0.07,0.51,0.27,0.61,0.54l0.31,0.82h1.05l0.31-0.82
			c0.1-0.27,0.33-0.47,0.61-0.54c0.64-0.15,1.26-0.41,1.82-0.75c0.24-0.15,0.55-0.17,0.81-0.06l0.8,0.36l0.74-0.74l-0.36-0.8
			c-0.12-0.26-0.1-0.56,0.05-0.81c0.35-0.56,0.6-1.18,0.76-1.82c0.07-0.28,0.27-0.51,0.54-0.61l0.82-0.31v-1.05l-0.82-0.31
			c-0.27-0.1-0.47-0.33-0.54-0.61c-0.15-0.64-0.41-1.26-0.75-1.82c-0.15-0.24-0.17-0.55-0.05-0.81l0.36-0.8l-0.74-0.74l-0.8,0.36
			c-0.26,0.12-0.57,0.1-0.81-0.05c-0.56-0.35-1.18-0.6-1.82-0.75C86.88,271.18,86.65,270.98,86.54,270.71L86.54,270.71z
			 M85.7,272.53c2.65,0,4.79,2.14,4.79,4.79c0,2.65-2.15,4.79-4.79,4.79c-2.65,0-4.79-2.15-4.79-4.79
			C80.91,274.68,83.06,272.53,85.7,272.53z M85.7,274.28c-1.68,0-3.05,1.36-3.05,3.05c0,1.68,1.36,3.05,3.05,3.05
			c1.68,0,3.05-1.37,3.05-3.05C88.75,275.64,87.39,274.28,85.7,274.28z"/>
	</g>
</g>
<g>
	<text transform="matrix(1 0 0 1 353.9445 337.9819)" class="st6 st7 st8">Trip Management</text>
	<path class="st6" d="M438.68,290.02v3.86c0,1.06-0.86,1.93-1.93,1.93h-2.26c-0.58,3.44-1.94,6.71-3.96,9.55l1.6,1.59
		c0.76,0.75,0.76,1.98,0,2.73l-2.73,2.73c-0.75,0.75-1.98,0.75-2.73,0l-1.59-1.6c-2.84,2.02-6.11,3.37-9.55,3.96v2.26
		c0,1.06-0.86,1.93-1.93,1.93h-3.86c-1.06,0-1.93-0.86-1.93-1.93v-2.26c-3.44-0.58-6.71-1.94-9.55-3.96l-1.59,1.6
		c-0.75,0.75-1.98,0.76-2.73,0c0,0-2.73-2.73-2.73-2.73c-0.75-0.72-0.75-2.02,0-2.73l1.6-1.59c-1.22-1.71-2.19-3.56-2.89-5.51
		c-0.18-0.5,0.08-1.05,0.58-1.23c0.5-0.18,1.05,0.08,1.23,0.58c0.72,2.02,1.77,3.93,3.11,5.67c0.29,0.38,0.26,0.93-0.08,1.27
		l-2.19,2.18l2.73,2.73l2.18-2.19c0.34-0.34,0.89-0.38,1.27-0.08c2.94,2.27,6.45,3.72,10.14,4.2c0.48,0.06,0.84,0.47,0.84,0.96v3.09
		h3.86v-3.09c0-0.48,0.36-0.89,0.84-0.96c3.69-0.49,7.2-1.94,10.14-4.2c0.38-0.3,0.93-0.26,1.27,0.08l2.18,2.19l2.73-2.73
		l-2.19-2.18c-0.34-0.34-0.38-0.89-0.08-1.27c2.27-2.94,3.72-6.45,4.2-10.14c0.06-0.48,0.47-0.84,0.96-0.84h3.09v-3.86h-3.09
		c-0.48,0-0.89-0.36-0.96-0.84c-0.49-3.69-1.94-7.2-4.2-10.14c-0.3-0.38-0.26-0.93,0.08-1.27l2.19-2.18l-2.73-2.73l-2.18,2.19
		c-0.34,0.34-0.89,0.38-1.27,0.08c-2.94-2.27-6.45-3.72-10.14-4.2c-0.48-0.06-0.84-0.47-0.84-0.96v-3.09h-3.86v3.09
		c0,0.48-0.36,0.89-0.84,0.96c-3.69,0.49-7.2,1.94-10.14,4.2c-0.39,0.3-0.93,0.26-1.27-0.08l-2.18-2.19l-2.73,2.73l2.19,2.18
		c0.34,0.34,0.38,0.89,0.08,1.27c-2.27,2.94-3.72,6.45-4.2,10.14c-0.09,0.47-0.48,0.81-0.96,0.84h-3.09v3.86h3.09
		c0.53,0,0.96,0.43,0.96,0.96c0,0.53-0.43,0.96-0.96,0.96h-3.09c-1.06,0-1.93-0.86-1.93-1.93v-3.86c0-1.06,0.86-1.93,1.93-1.93h2.27
		c0.58-3.44,1.93-6.71,3.95-9.55c0,0-1.6-1.59-1.6-1.59c-0.75-0.72-0.75-2.02,0-2.73l2.73-2.73c0.75-0.75,1.98-0.75,2.73,0l1.59,1.6
		c2.84-2.02,6.11-3.37,9.55-3.96v-2.26c0-1.06,0.86-1.93,1.93-1.93h3.86c1.06,0,1.93,0.86,1.93,1.93v2.26
		c3.44,0.58,6.71,1.94,9.55,3.96l1.59-1.6c0.75-0.75,1.98-0.76,2.73,0l2.73,2.73c0.75,0.75,0.75,1.98,0,2.73l-1.6,1.59
		c2.02,2.84,3.37,6.11,3.96,9.55h2.26C437.82,288.09,438.68,288.96,438.68,290.02L438.68,290.02z M420.76,284.13l-4.77,11.59
		c-0.1,0.24-0.29,0.43-0.53,0.53c0,0-11.59,4.77-11.59,4.77c-0.76,0.34-1.6-0.5-1.26-1.26c0,0,4.77-11.59,4.77-11.59
		c0.1-0.24,0.29-0.43,0.53-0.53l11.59-4.77C420.25,282.53,421.1,283.38,420.76,284.13z M405.27,298.36l8.11-3.34l-4.77-4.77
		L405.27,298.36z M418.09,285.54l-8.11,3.34l4.77,4.77L418.09,285.54z M422.22,279.35c0.32-0.43,0.23-1.03-0.2-1.35
		c-3.01-2.23-6.58-3.41-10.33-3.41c-9.57,0-17.36,7.79-17.36,17.36c0.95,23.03,33.76,23.02,34.71,0c0-3.75-1.18-7.33-3.41-10.33
		c-0.32-0.43-0.92-0.52-1.35-0.2c-0.43,0.32-0.52,0.92-0.2,1.35c1.79,2.41,2.81,5.24,2.99,8.22h-0.93c-0.53,0-0.96,0.43-0.96,0.96
		c0,0.53,0.43,0.96,0.96,0.96h0.92c-0.48,7.74-6.68,13.93-14.42,14.42v-0.92c-0.02-1.28-1.91-1.26-1.93,0c0,0,0,0.92,0,0.92
		c-7.74-0.48-13.93-6.68-14.42-14.42h0.92c0.53,0,0.96-0.43,0.96-0.96s-0.43-0.96-0.96-0.96h-0.92c0.48-7.74,6.68-13.93,14.42-14.42
		v0.92c0,0.53,0.43,0.96,0.96,0.96c0.53,0,0.96-0.43,0.96-0.96v-0.93c2.98,0.18,5.81,1.2,8.22,2.99
		C421.29,279.87,421.9,279.78,422.22,279.35z"/>
</g>
<g>
	<text transform="matrix(1 0 0 1 142.4054 147.0942)"><tspan x="0" y="0" class="st6 st7 st8">Driver</tspan><tspan x="-21.91" y="14.4" class="st6 st7 st8">Management</tspan></text>
	<g>
		<path class="st6" d="M163.99,73.01c-14.89,0-27,12.11-27,27s12.11,27,27,27s27-12.11,27-27S178.87,73.01,163.99,73.01z
			 M163.99,125.42c-14.01,0-25.41-11.4-25.41-25.41s11.4-25.41,25.41-25.41S189.4,86,189.4,100.01S178,125.42,163.99,125.42z"/>
		<path class="st6" d="M170.83,100.01c0-3.77-3.07-6.84-6.84-6.84s-6.84,3.07-6.84,6.84c0,3.77,3.07,6.84,6.84,6.84
			S170.83,103.78,170.83,100.01z M163.99,105.26c-2.9,0-5.25-2.36-5.25-5.25c0-2.9,2.36-5.25,5.25-5.25s5.25,2.36,5.25,5.25
			C169.24,102.91,166.88,105.26,163.99,105.26z"/>
		<path class="st6" d="M185.22,104.92C185.22,104.92,185.22,104.92,185.22,104.92c-5.37-1.43-11.13,0.11-15.05,4.04
			c-3.38,3.38-5,8.03-4.46,12.78c0,0,0,0,0,0c0,0,0,0,0,0c0.05,0.41,0.39,0.7,0.79,0.7c0.03,0,0.06,0,0.09-0.01
			c4.52-0.52,8.74-2.38,12.19-5.37c3.42-2.97,5.84-6.83,7.01-11.18C185.9,105.47,185.65,105.03,185.22,104.92z M177.73,115.87
			c-3,2.6-6.62,4.28-10.52,4.88c-0.22-3.98,1.24-7.83,4.08-10.67c3.33-3.33,8.14-4.75,12.73-3.81
			C182.86,109.98,180.7,113.29,177.73,115.87z"/>
		<path class="st6" d="M142.75,104.92C142.75,104.92,142.75,104.92,142.75,104.92C142.75,104.92,142.75,104.92,142.75,104.92
			c-0.43,0.11-0.68,0.55-0.56,0.97c1.17,4.35,3.59,8.21,7.01,11.18c3.45,2.99,7.66,4.85,12.19,5.37c0.03,0,0.06,0.01,0.09,0.01
			c0.4,0,0.74-0.3,0.79-0.7c0,0,0,0,0,0c0,0,0,0,0,0c0.54-4.75-1.09-9.41-4.46-12.78C153.88,105.03,148.12,103.49,142.75,104.92z
			 M160.76,120.75c-3.9-0.6-7.52-2.28-10.52-4.88c-2.97-2.58-5.13-5.88-6.29-9.6c4.59-0.94,9.4,0.48,12.73,3.81
			C159.52,112.92,160.98,116.77,160.76,120.75z"/>
		<path class="st6" d="M179.84,83.94c-4.25-4.19-9.88-6.5-15.85-6.5c-5.97,0-11.6,2.31-15.85,6.5c-4.25,4.19-6.63,9.78-6.72,15.74
			c0,0.34,0.2,0.64,0.52,0.76c0.09,0.03,0.18,0.05,0.27,0.05c0.23,0,0.46-0.1,0.61-0.29c4.73-5.74,12.64-9.17,21.16-9.17
			c8.52,0,16.43,3.43,21.16,9.17c0.21,0.26,0.57,0.36,0.89,0.24c0.32-0.12,0.53-0.42,0.52-0.76
			C186.47,93.72,184.08,88.13,179.84,83.94z M163.99,89.45c-8.11,0-15.73,2.97-20.83,8.04c0.56-4.7,2.68-9.04,6.1-12.41
			c3.95-3.9,9.18-6.05,14.74-6.05c5.55,0,10.78,2.15,14.74,6.05c3.42,3.37,5.54,7.71,6.1,12.41
			C179.71,92.42,172.1,89.45,163.99,89.45z"/>
	</g>
</g>
</svg>
